<svg xmlns="http://www.w3.org/2000/svg" width="1em" viewBox="0 0 375 375" height="1em" version="1.0">
    <defs>
        <clipPath id="a">
            <path d="M67 162.48h80.1v21H67Zm0 0"/>
        </clipPath>
        <clipPath id="b">
            <path d="M35.13 193.84h111.96v21H35.12Zm0 0"/>
        </clipPath>
        <clipPath id="c">
            <path d="M4.9 225.28h142.2v21H4.9Zm0 0"/>
        </clipPath>
    </defs>
    <path d="M253.42 248.14c-4.63 3.68-10.44 6.64-17.4 8.88a66.77 66.77 0 0 1-20.52 3.36c-18.24 0-32.68-4.92-43.33-14.75-10.63-9.85-15.95-23.4-15.95-40.7 0-11.2 2.6-21 7.8-29.4a51.87 51.87 0 0 1 20.51-19.2 58.55 58.55 0 0 1 27.38-6.6c17.43 0 31.6 4.63 42.48 13.91l-16.33 21.61a36.2 36.2 0 0 0-23.04-8.15c-7.04 0-13 2.64-17.88 7.92-4.89 5.28-7.33 11.92-7.33 19.92 0 8 2.64 14.68 7.92 20.05 5.29 5.35 12.17 8.03 20.66 8.03 7.35 0 13.43-2 18.24-6Zm0 0"/>
    <path d="M246.47 203.74c0-10.72 2.52-20.32 7.56-28.8 5.04-8.49 12.16-15.17 21.36-20.05 9.2-4.88 19.64-7.33 31.33-7.33 11.68 0 21.95 2.45 30.83 7.33a51.52 51.52 0 0 1 20.53 20.05c4.8 8.48 7.2 18.08 7.2 28.8 0 10.71-2.4 20.4-7.2 29.04a51.18 51.18 0 0 1-20.53 20.28c-8.88 4.88-19.31 7.32-31.31 7.32-11.7 0-22.06-2.28-31.1-6.83a50.46 50.46 0 0 1-21.1-19.56c-5.05-8.5-7.57-18.57-7.57-30.25Zm33.84.23c0 8.32 2.4 15.25 7.2 20.77a23.11 23.11 0 0 0 18.24 8.28c7.69 0 13.9-2.72 18.61-8.16 4.72-5.44 7.08-12.4 7.08-20.89 0-8.48-2.36-15.44-7.08-20.87-4.72-5.45-10.92-8.18-18.6-8.18a23.12 23.12 0 0 0-18.24 8.28c-4.8 5.53-7.2 12.45-7.2 20.77Zm0 0"/>
    <g clip-path="url(#a)">
        <path d="M67 162.48h80.07v21H66.99Zm0 0"/>
    </g>
    <g clip-path="url(#b)">
        <path d="M35.13 193.84h112v21h-112Zm0 0"/>
    </g>
    <g clip-path="url(#c)">
        <path d="M4.9 225.28h142.19v21H4.89Zm0 0"/>
    </g>
</svg>