<svg xmlns="http://www.w3.org/2000/svg" version="1.1" xmlns:xlink="http://www.w3.org/1999/xlink"
     xmlns:svgjs="http://svgjs.com/svgjs" width="100" height="100">
    <svg xmlns="http://www.w3.org/2000/svg" xmlns:xlink="http://www.w3.org/1999/xlink" width="100" height="100" zoomAndPan="magnify"
         viewBox="0 0 375 375" preserveAspectRatio="xMidYMid meet" version="1.0">
        <g fill="#000000" fill-opacity="1">
            <g transform="translate(147.094039, 257.50183)">
                <g>
                    <path d="M 106.328125 -9.359375 C 101.691406 -5.679688 95.890625 -2.722656 88.921875 -0.484375 C 81.960938 1.753906 75.125 2.875 68.40625 2.875 C 50.164062 2.875 35.722656 -2.039062 25.078125 -11.875 C 14.441406 -21.71875 9.125 -35.28125 9.125 -52.5625 C 9.125 -63.769531 11.722656 -73.570312 16.921875 -81.96875 C 22.117188 -90.375 28.957031 -96.773438 37.4375 -101.171875 C 45.925781 -105.578125 55.050781 -107.78125 64.8125 -107.78125 C 82.25 -107.78125 96.410156 -103.140625 107.296875 -93.859375 L 90.96875 -72.25 C 84.09375 -77.6875 76.410156 -80.40625 67.921875 -80.40625 C 60.890625 -80.40625 54.929688 -77.765625 50.046875 -72.484375 C 45.160156 -67.203125 42.71875 -60.5625 42.71875 -52.5625 C 42.71875 -44.5625 45.359375 -37.878906 50.640625 -32.515625 C 55.921875 -27.160156 62.804688 -24.484375 71.296875 -24.484375 C 78.648438 -24.484375 84.726562 -26.484375 89.53125 -30.484375 Z M 106.328125 -9.359375 "/>
                </g>
            </g>
        </g>
        <g fill="#000000" fill-opacity="1">
            <g transform="translate(237.345012, 257.50183)">
                <g>
                    <path d="M 9.125 -53.765625 C 9.125 -64.484375 11.644531 -74.082031 16.6875 -82.5625 C 21.726562 -91.050781 28.847656 -97.734375 38.046875 -102.609375 C 47.242188 -107.492188 57.6875 -109.9375 69.375 -109.9375 C 81.050781 -109.9375 91.328125 -107.492188 100.203125 -102.609375 C 109.085938 -97.734375 115.929688 -91.050781 120.734375 -82.5625 C 125.535156 -74.082031 127.9375 -64.484375 127.9375 -53.765625 C 127.9375 -43.046875 125.535156 -33.363281 120.734375 -24.71875 C 115.929688 -16.082031 109.085938 -9.320312 100.203125 -4.4375 C 91.328125 0.4375 80.890625 2.875 68.890625 2.875 C 57.203125 2.875 46.835938 0.597656 37.796875 -3.953125 C 28.765625 -8.515625 21.726562 -15.035156 16.6875 -23.515625 C 11.644531 -32.003906 9.125 -42.085938 9.125 -53.765625 Z M 42.96875 -53.53125 C 42.96875 -45.207031 45.367188 -38.285156 50.171875 -32.765625 C 54.972656 -27.242188 61.050781 -24.484375 68.40625 -24.484375 C 76.09375 -24.484375 82.296875 -27.203125 87.015625 -32.640625 C 91.734375 -38.085938 94.09375 -45.050781 94.09375 -53.53125 C 94.09375 -62.007812 91.734375 -68.96875 87.015625 -74.40625 C 82.296875 -79.851562 76.09375 -82.578125 68.40625 -82.578125 C 61.050781 -82.578125 54.972656 -79.816406 50.171875 -74.296875 C 45.367188 -68.773438 42.96875 -61.851562 42.96875 -53.53125 Z M 42.96875 -53.53125 "/>
                </g>
            </g>
        </g>
        <g clip-path="url(#327302df08)">
            <path fill="#000000"
                  d="M 66.992188 162.480469 L 147.070312 162.480469 L 147.070312 183.484375 L 66.992188 183.484375 Z M 66.992188 162.480469 "
                  fill-opacity="1" fill-rule="nonzero"/>
        </g>
        <g clip-path="url(#6866eb8074)">
            <path fill="#000000"
                  d="M 35.125 193.839844 L 147.121094 193.839844 L 147.121094 214.84375 L 35.125 214.84375 Z M 35.125 193.839844 "
                  fill-opacity="1" fill-rule="nonzero"/>
        </g>
        <g clip-path="url(#97852e5fae)">
            <path fill="#000000"
                  d="M 4.898438 225.28125 L 147.089844 225.28125 L 147.089844 246.285156 L 4.898438 246.285156 Z M 4.898438 225.28125 "
                  fill-opacity="1" fill-rule="nonzero"/>
        </g>
    </svg>

</svg>
